<svg t="1600086864913" class="icon" viewBox="0 0 1024 1024" version="1.1" xmlns="http://www.w3.org/2000/svg" p-id="2818" width="128" height="128"><path d="M490.951111 56.888889C249.457778 68.266667 56.888889 267.093333 56.888889 511.431111a452.835556 452.835556 0 0 0 96.824889 280.120889L490.951111 501.532444V56.888889z m29.468445 476.046222l-338.659556 291.271111A453.973333 453.973333 0 0 0 512.512 967.111111c244.394667 0 443.278222-192.568889 454.599111-434.176H520.419556z" fill="#509DFF" p-id="2819"></path><path d="M879.559111 242.915556l-286.72 247.011555H534.072889v-25.770667l308.679111-265.329777c13.198222 13.880889 25.486222 28.615111 36.807111 44.088889z m31.288889 247.011555h-88.689778l126.065778-108.430222c6.257778 20.707556 11.377778 41.870222 14.506667 63.715555l-51.939556 44.714667z m-148.764444-358.741333c16.497778 10.808889 32.199111 22.641778 47.160888 35.498666L534.072889 403.797333V327.168l228.010667-195.982222z m-101.262223-50.062222c20.252444 7.168 39.992889 15.701333 58.993778 25.6L534.072889 266.808889V190.236444l126.805333-109.112888z m2.048 408.803555h-0.056889l3.697778-3.242667 238.648889-205.084444c9.955556 17.180444 18.887111 35.043556 26.624 53.361778l-179.882667 154.965333h-89.031111zM534.072889 56.888889c24.632889 1.308444 49.095111 4.551111 73.216 9.784889l-73.216 63.146666V56.888889z" fill="#FFCB48" p-id="2820"></path></svg>